<?xml version="1.0" standalone="no"?>
<!DOCTYPE svg PUBLIC "-//W3C//DTD SVG 20010904//EN"
 "http://www.w3.org/TR/2001/REC-SVG-20010904/DTD/svg10.dtd">
<svg version="1.0" xmlns="http://www.w3.org/2000/svg"
 width="1600.000000pt" height="1600.000000pt" viewBox="0 0 1600.000000 1600.000000"
 preserveAspectRatio="xMidYMid meet">
<metadata>
Created by potrace 1.11, written by Peter Selinger 2001-2013
</metadata>
<g transform="translate(0.000000,1600.000000) scale(0.100000,-0.100000)"
fill="#000000" stroke="none">
<path d="M2542 13500 c-37 -41 -75 -86 -87 -99 -38 -45 -150 -176 -160 -187
-5 -6 -30 -35 -54 -64 -25 -29 -50 -58 -55 -64 -12 -12 -107 -123 -141 -165
-11 -13 -27 -31 -36 -40 -9 -9 -98 -113 -199 -231 -101 -118 -186 -217 -189
-220 -3 -3 -28 -32 -56 -65 -27 -33 -54 -65 -60 -71 -5 -6 -32 -37 -60 -69
-27 -32 -59 -69 -70 -81 -22 -25 -50 -58 -210 -244 -59 -69 -129 -150 -155
-180 -161 -187 -256 -297 -269 -314 -9 -10 -20 -23 -26 -30 -5 -6 -35 -40 -65
-76 -30 -36 -60 -69 -66 -75 -5 -5 -35 -39 -65 -75 -29 -36 -56 -67 -59 -70
-3 -3 -60 -68 -125 -145 -123 -143 -162 -189 -180 -209 -11 -13 -122 -143
-142 -166 -10 -13 -9 -20 10 -40 12 -14 101 -115 197 -225 96 -110 191 -217
210 -239 19 -21 40 -44 45 -50 6 -6 35 -40 65 -75 30 -36 66 -77 80 -91 14
-15 36 -40 50 -57 21 -25 128 -147 165 -187 6 -6 39 -45 75 -86 36 -41 67 -77
70 -80 3 -3 115 -131 250 -285 135 -154 261 -298 280 -319 19 -21 40 -44 45
-50 6 -6 39 -45 75 -86 36 -41 67 -77 70 -80 3 -3 50 -57 105 -120 55 -63 102
-117 106 -120 4 -4 456 -520 529 -604 14 -16 32 -36 40 -45 9 -9 47 -52 85
-96 39 -44 72 -82 75 -85 3 -3 34 -39 70 -80 36 -41 67 -77 70 -80 3 -3 84
-95 180 -205 96 -110 180 -205 185 -211 6 -6 35 -39 65 -74 30 -34 66 -75 80
-90 14 -15 36 -40 49 -56 14 -16 74 -85 135 -154 61 -69 138 -157 171 -194 33
-38 65 -74 70 -80 6 -6 41 -47 80 -91 38 -44 72 -82 75 -85 3 -3 51 -57 105
-120 55 -63 102 -117 105 -120 3 -3 32 -36 65 -75 33 -38 79 -90 101 -115 23
-25 243 -274 489 -555 246 -280 459 -524 474 -540 14 -17 55 -63 91 -104 36
-41 72 -82 80 -91 8 -8 74 -83 145 -165 72 -82 137 -157 145 -165 8 -9 36 -40
62 -70 26 -30 61 -71 78 -90 18 -19 57 -64 88 -100 31 -36 75 -85 97 -110 22
-25 69 -79 105 -119 36 -41 70 -79 75 -85 6 -6 89 -101 184 -211 96 -110 182
-207 190 -216 9 -9 27 -29 41 -45 69 -80 445 -510 450 -514 3 -3 72 -81 154
-175 82 -93 161 -183 175 -200 15 -16 76 -86 136 -155 60 -69 112 -127 115
-130 3 -3 35 -39 72 -82 36 -42 79 -91 96 -110 17 -18 44 -48 60 -67 26 -30
32 -33 44 -20 7 8 112 127 232 264 121 138 222 252 225 255 3 3 31 34 61 70
30 36 58 67 61 70 3 3 57 64 119 135 62 72 116 132 119 135 3 3 31 34 61 70
30 36 64 74 75 85 11 11 34 36 50 56 26 32 476 545 547 624 14 17 35 39 45 51
52 60 140 160 153 174 8 9 44 50 80 91 35 41 67 76 70 79 3 3 34 39 70 80 36
41 69 80 75 86 11 12 53 61 236 269 62 72 118 135 124 141 5 6 35 39 65 74 30
35 93 107 140 160 176 198 209 236 247 280 36 41 95 109 167 190 17 19 58 67
91 105 33 39 63 72 66 75 3 3 56 63 118 133 61 70 124 142 140 160 16 18 95
109 177 202 82 94 153 175 159 181 14 16 118 133 215 244 94 108 190 218 205
234 6 6 42 47 80 91 39 44 72 82 75 85 3 3 34 39 70 80 35 41 71 82 80 91 8 8
40 44 70 79 59 69 116 134 166 190 17 19 86 98 154 175 67 77 148 169 179 204
31 36 74 85 96 110 22 25 42 48 45 51 3 3 55 61 115 130 60 69 111 127 114
130 4 3 31 34 61 70 30 36 58 67 61 70 3 3 104 118 224 255 121 138 222 252
225 255 3 3 48 55 100 115 52 61 98 112 101 115 3 3 71 80 152 172 161 185
193 221 253 288 22 25 107 122 189 215 82 94 151 172 154 175 4 3 19 21 35 40
15 19 45 53 65 75 31 35 91 102 202 230 15 16 64 73 110 125 45 52 85 97 88
100 3 3 49 55 101 115 52 61 106 122 120 137 14 15 36 40 50 55 14 16 48 56
77 89 28 32 53 62 55 65 2 5 -116 136 -252 279 -19 20 -64 68 -100 106 -36 38
-131 139 -211 224 -80 85 -173 184 -206 220 -34 36 -83 88 -110 116 -26 29
-104 112 -173 185 -69 73 -136 145 -150 159 -14 15 -77 82 -140 149 -63 68
-131 140 -150 160 -19 21 -96 102 -170 181 -74 79 -144 153 -155 165 -26 27
-124 131 -306 325 -80 85 -177 188 -215 229 -38 41 -85 91 -104 111 -101 107
-292 310 -342 364 l-57 61 -5152 0 -5151 1 -66 -76z m1568 -837 c0 -1 -42 -24
-92 -49 -609 -305 -1144 -769 -1485 -1289 -231 -352 -363 -684 -437 -1100 -21
-116 -24 -378 -7 -508 22 -158 28 -188 69 -316 l21 -64 -52 59 c-119 135 -188
207 -560 584 -286 289 -431 442 -519 546 -17 19 -16 21 5 44 145 157 395 459
775 935 439 550 643 801 730 900 15 17 44 50 66 75 21 25 67 77 102 116 l64
71 660 0 c363 0 660 -2 660 -4z m3679 -57 c24 -2 74 -7 110 -11 36 -3 80 -8
96 -10 17 -2 53 -7 80 -10 386 -45 810 -166 1100 -313 654 -331 1016 -690
1251 -1240 46 -109 126 -342 159 -464 10 -38 21 -69 24 -69 3 -1 590 -2 1304
-3 1156 -1 1297 0 1298 14 0 8 0 363 0 788 l0 774 77 -79 c122 -126 289 -304
382 -409 218 -244 286 -321 295 -330 5 -6 24 -27 40 -45 59 -67 180 -203 195
-219 8 -9 58 -63 110 -120 108 -118 233 -250 303 -320 26 -26 47 -51 47 -55 0
-7 -119 -152 -160 -195 -8 -9 -39 -43 -69 -76 -155 -171 -313 -335 -673 -698
-218 -221 -411 -417 -430 -436 -210 -224 -344 -372 -430 -477 -24 -29 -46 -52
-49 -53 -3 0 -35 37 -70 83 -442 571 -983 974 -1553 1156 -110 35 -313 87
-376 96 -25 4 -63 10 -85 15 -22 5 -67 11 -100 15 -33 3 -80 8 -105 10 -25 3
-97 7 -160 10 -225 8 -426 17 -515 21 -84 4 -293 6 -1895 19 -614 5 -697 7
-955 19 -113 6 -135 8 -210 21 -16 3 -48 8 -70 11 -22 3 -46 7 -54 10 -8 3
-30 7 -50 10 -29 4 -204 41 -336 71 -11 2 -31 6 -44 9 -13 3 -80 21 -150 40
-69 19 -137 37 -151 40 -30 6 -342 110 -385 128 -16 7 -77 33 -135 57 -434
180 -707 409 -770 648 -34 128 0 307 86 454 81 139 257 325 393 416 20 14 38
27 41 31 5 7 152 102 210 137 217 130 538 274 800 359 138 45 327 97 390 108
19 3 46 8 60 11 55 11 111 19 205 31 33 3 68 8 78 10 10 2 73 6 140 10 67 4
124 8 125 10 5 4 530 -5 581 -10z m3901 -6 c0 -5 -101 -133 -138 -175 -10 -11
-58 -67 -107 -125 -50 -58 -95 -109 -101 -115 -6 -5 -35 -39 -65 -75 -30 -36
-57 -67 -60 -70 -3 -3 -33 -40 -66 -83 l-61 -78 -58 73 c-163 205 -395 419
-641 592 -46 32 -83 58 -83 59 0 1 311 2 690 2 380 0 690 -2 690 -5z m-8110
-4795 c52 -3 122 -8 155 -10 33 -2 98 -7 145 -10 47 -3 112 -8 145 -11 33 -2
87 -6 120 -9 130 -10 215 -16 325 -26 63 -5 145 -11 182 -14 38 -2 94 -6 125
-9 32 -3 94 -8 138 -11 44 -3 100 -7 125 -10 25 -2 81 -7 125 -11 44 -3 96 -7
115 -9 19 -2 73 -6 120 -9 47 -4 101 -9 120 -11 19 -2 76 -7 125 -10 50 -3
106 -7 125 -10 19 -2 76 -7 125 -10 50 -3 108 -8 130 -10 39 -4 110 -10 240
-20 82 -6 184 -14 255 -20 30 -3 84 -7 120 -9 36 -3 94 -8 130 -11 36 -3 99
-7 140 -10 75 -5 155 -11 260 -21 30 -2 89 -7 130 -9 173 -11 238 -16 285 -20
28 -2 91 -7 140 -10 50 -3 115 -7 145 -10 30 -2 105 -7 165 -10 61 -3 139 -8
175 -10 73 -5 238 -15 350 -20 41 -2 125 -6 185 -9 165 -8 335 -16 480 -21
345 -13 407 -17 505 -31 412 -60 809 -200 1015 -358 129 -100 220 -242 219
-345 -1 -188 -241 -406 -604 -549 -130 -52 -370 -127 -468 -147 -9 -2 -57 -12
-107 -23 -49 -11 -107 -23 -127 -26 -21 -3 -75 -12 -121 -20 -46 -8 -110 -18
-141 -21 -31 -4 -65 -8 -75 -10 -10 -2 -54 -6 -97 -10 -43 -4 -87 -9 -97 -11
-40 -7 -310 -17 -462 -18 -411 0 -721 47 -921 140 -22 10 -70 47 -109 83 -117
110 -284 210 -515 309 -276 119 -664 220 -985 258 -27 3 -61 7 -75 10 -154 25
-687 25 -841 -1 -13 -2 -42 -6 -64 -10 -160 -23 -302 -57 -454 -107 l-95 -31
-34 39 c-19 21 -47 53 -61 69 -15 17 -90 102 -166 190 -77 88 -149 169 -160
181 -11 11 -33 36 -50 55 -92 106 -170 195 -175 199 -3 3 -29 32 -59 65 -78
86 -294 316 -376 401 -38 40 -83 86 -100 104 l-30 31 45 -5 c25 -3 88 -8 140
-11z m2760 -2974 c181 -63 412 -126 585 -160 108 -22 123 -24 230 -41 39 -6
81 -13 95 -15 14 -2 52 -6 85 -9 33 -4 71 -8 85 -11 23 -4 139 -13 255 -20 72
-5 488 -5 565 0 213 12 387 31 565 60 264 42 582 128 824 221 63 25 115 43
117 41 1 -1 -17 -25 -40 -52 -24 -28 -126 -147 -227 -265 -101 -118 -188 -220
-194 -226 -15 -16 -61 -70 -135 -154 -36 -41 -69 -80 -75 -86 -5 -6 -39 -44
-75 -84 -36 -40 -69 -78 -75 -84 -5 -6 -39 -45 -75 -86 -36 -41 -74 -84 -85
-95 -11 -11 -58 -63 -105 -115 -101 -113 -146 -163 -180 -199 -14 -15 -59 -65
-100 -111 -41 -46 -80 -88 -85 -94 -6 -6 -73 -81 -150 -166 -77 -85 -149 -164
-160 -176 -11 -11 -39 -42 -63 -69 -24 -26 -47 -44 -51 -39 -22 26 -662 799
-850 1029 -36 44 -76 91 -88 105 -11 14 -90 108 -174 210 -84 102 -186 226
-228 276 -42 50 -94 113 -116 140 -94 113 -250 301 -269 323 -25 29 -46 34
194 -48z"/>
</g>
</svg>
